# xmcd
#
# Track frame offsets: 
#        182
#        12757
#        27910
#        38437
#        52952
#        66675
#        77505
#        92207
#        107377
#        122835
#
# Disc length: 1800 seconds
#
# Revision: 0
# Processed by: cddbd v1.5.2PL0 Copyright (c) Steve Scherf et al.
# Submitted via: ExactAudioCopyFreeDBPlugin 1.0
#
DISCID=7307060a
DTITLE=Davis Sammy, Jnr. - Sammy Davis Junior
DYEAR=1997
DGENRE=Rhythm And Blues
TTITLE0=What I've Got In Mind
TTITLE1=Come Sundown
TTITLE2=Mention A Mansion
TTITLE3=You're Gonna Love Yourself (In The Morning)
TTITLE4=Smoke, Smoke, Smoke (That Cigarette)
TTITLE5=Oh Lonesome Me
TTITLE6=We Could Have Been Closest Of Friends
TTITLE7=Hey Won't You Play (Another Somebody Done Somebody Wrong Song)
TTITLE8=Please Don't Tell Me How The Story Ends
TTITLE9=The River's Too Wide
EXTD=YEAR: 1997
EXTT0=
EXTT1=
EXTT2=
EXTT3=
EXTT4=
EXTT5=
EXTT6=
EXTT7=
EXTT8=
EXTT9=
PLAYORDER=
